# xmcd CD database file
#
# Track frame offsets:
#	150
#	12010
#	19892
#	39525
#	59392
#	67977
#	78085
#	89670
#	98600
#	128850
#	142770
#	146010
#	155360
#	170185
#	182437
#
# Disc length: 2687 seconds
#
# Revision: 1
# Processed by: cddbd v1.5.2PL0 Copyright (c) Steve Scherf et al.
# Submitted via: CDex 1.70beta2
#
DISCID=bd0a7d0f
DTITLE=Various Artist - THE READYMADE PARTY JOKE BOOK
DYEAR=1993
DGENRE=Jazz
TTITLE0=Jackie Cain and Roy Kral - Glasses And Ashes And Bottles And Cans
TTITLE1=Lambert, Hendricks and Ross with Louis Armstrong - Everybody's Comin'
TTITLE2=The Dave Brubeck Quartet - Everybody's Jumpin'
TTITLE3=Lambert, Hendricks and Ross - Home Cookin'
TTITLE4=Art Van Damme Quintet - Madame Van Damme
TTITLE5=Lambert, Hendricks and Ross - Twisted
TTITLE6=Paul Winter - Daniele -愛するダニエル-
TTITLE7=Jackie Cain and Roy Kral - Sing Me An Abstract Song
TTITLE8=The Dave Brubeck Quartet - Blue Rondo A La Turk -トルコ風ブルー･ロンド-
TTITLE9=John Simon - My Name Is Jack
TTITLE10=Lambert, Hendricks and Ross with Louis Armstrong - Blow Satchmo -吹けよ、サッチモ-
TTITLE11=Art Van Damme Quintet - Blue Lou
TTITLE12=Lambert, Hendricks and Ross - Charleston Alley
TTITLE13=Michel Legrand - Adios
TTITLE14=Jackie Cain and Roy Kral - Sweet And Low Down
EXTD=YEAR: 1993
EXTT0=
EXTT1=
EXTT2=
EXTT3=
EXTT4=
EXTT5=
EXTT6=
EXTT7=
EXTT8=
EXTT9=
EXTT10=
EXTT11=
EXTT12=
EXTT13=
EXTT14=
PLAYORDER=
